<svg id="Layer_1" data-name="Layer 1" xmlns="http://www.w3.org/2000/svg" xmlns:xlink="http://www.w3.org/1999/xlink" viewBox="0 0 136.01 55.89"><defs><style>.cls-1{fill:#8fd3f3;}.cls-2{fill:url(#linear-gradient);}.cls-3{stroke:#fff;stroke-miterlimit:10;stroke-width:1.78px;fill:url(#linear-gradient-2);}.cls-4{fill:url(#linear-gradient-3);}</style><linearGradient id="linear-gradient" x1="55.27" y1="20.92" x2="96.04" y2="20.92" gradientUnits="userSpaceOnUse"><stop offset="0" stop-color="#f4e600"/><stop offset="0.18" stop-color="#dbe13c"/><stop offset="0.4" stop-color="#c0dc7c"/><stop offset="0.6" stop-color="#abd8b0"/><stop offset="0.77" stop-color="#9cd5d4"/><stop offset="0.91" stop-color="#92d4eb"/><stop offset="1" stop-color="#8fd3f3"/></linearGradient><linearGradient id="linear-gradient-2" x1="61.51" y1="19.14" x2="135.65" y2="19.14" gradientUnits="userSpaceOnUse"><stop offset="0" stop-color="#8fd3f3"/><stop offset="0.12" stop-color="#8bccef"/><stop offset="0.29" stop-color="#80b9e3"/><stop offset="0.49" stop-color="#6e9bd0"/><stop offset="0.66" stop-color="#5b79bb"/><stop offset="1" stop-color="#46bfe2"/></linearGradient><linearGradient id="linear-gradient-3" x1="96.52" y1="16.18" x2="137.57" y2="16.18" gradientUnits="userSpaceOnUse"><stop offset="0" stop-color="#8fd3f3"/><stop offset="0.09" stop-color="#92d4eb"/><stop offset="0.23" stop-color="#9cd5d4"/><stop offset="0.4" stop-color="#abd8b0"/><stop offset="0.6" stop-color="#c0dc7c"/><stop offset="0.82" stop-color="#dbe13c"/><stop offset="1" stop-color="#f4e600"/></linearGradient></defs><title>logo</title><path class="cls-1" d="M69.57,56.55a2,2,0,0,1-.58-.08,1.56,1.56,0,0,1-.46-.24,3,3,0,0,1-.48-.47l-.51-.64-7-9.42v9.53a2.13,2.13,0,0,1-.09.63.84.84,0,0,1-.13.29l-.09.17a.79.79,0,0,1-.41.19l-.19,0h-.2a1.94,1.94,0,0,1-.62-.08,1.45,1.45,0,0,1-.46-.24,3,3,0,0,1-.48-.47l-.51-.64-7-9.46v9.79a1.15,1.15,0,0,1-.27.86.91.91,0,0,1-.66.24.87.87,0,0,1-.65-.24,1.18,1.18,0,0,1-.27-.86V44.78a2.22,2.22,0,0,1,.13-.88,1.13,1.13,0,0,1,.46-.46,1.49,1.49,0,0,1,1.21-.11,1.28,1.28,0,0,1,.37.23A2.64,2.64,0,0,1,51,44l.5.69,7.12,9.44V44.78a2,2,0,0,1,.14-.88c.12-.42.37-.57.87-.65a1.19,1.19,0,0,1,1.16.31,2.64,2.64,0,0,1,.4.45l.5.69,7.21,9.55V44.36a1.23,1.23,0,0,1,.25-.88.84.84,0,0,1,.63-.23.87.87,0,0,1,.65.23,1.23,1.23,0,0,1,.26.88V55.23C70.72,56.39,70.17,56.55,69.57,56.55Z" transform="translate(-2.57 -1.03)"/><path class="cls-1" d="M74.49,56.31a1.71,1.71,0,0,1-1.09-.25,1.28,1.28,0,0,1-.3-1V44.7a1.67,1.67,0,0,1,.15-.77.72.72,0,0,1,.37-.31,2.28,2.28,0,0,1,.87-.13h8.45a1.27,1.27,0,0,1,.75.17.48.48,0,0,1,.18.4.5.5,0,0,1-.18.42,1.27,1.27,0,0,1-.75.17H75.16v4.4h7.2a1.23,1.23,0,0,1,.71.15.47.47,0,0,1,.18.39.51.51,0,0,1-.18.41,1.21,1.21,0,0,1-.71.16h-7.2v4.93h8a1.19,1.19,0,0,1,.75.18.5.5,0,0,1,.2.44.5.5,0,0,1-.2.43,1.27,1.27,0,0,1-.75.17Z" transform="translate(-2.57 -1.03)"/><path class="cls-1" d="M104.31,56.55a1,1,0,0,1-.74-.26,1.32,1.32,0,0,1-.29-.95V44.8H99.21a1.43,1.43,0,0,1-.83-.19.55.55,0,0,1-.21-.46.54.54,0,0,1,.22-.47,1.43,1.43,0,0,1,.82-.19h10.17a1.48,1.48,0,0,1,.85.19.55.55,0,0,1,.22.47.54.54,0,0,1-.22.46,1.48,1.48,0,0,1-.85.19h-4.06V55.34a1.3,1.3,0,0,1-.29.95A1,1,0,0,1,104.31,56.55Z" transform="translate(-2.57 -1.03)"/><path class="cls-1" d="M136.61,56.55a1.06,1.06,0,0,1-.58-.13,1.83,1.83,0,0,1-.49-.43c-.17-.22-.4-.55-.69-1l-1.28-1.87a11.85,11.85,0,0,0-1.3-1.64,3.61,3.61,0,0,0-1.32-.86,4.81,4.81,0,0,0-1.62-.24h-1.7v4.94a1.36,1.36,0,0,1-.28,1,1,1,0,0,1-.74.25,1,1,0,0,1-.75-.26,1.38,1.38,0,0,1-.28-.95V44.7a1.23,1.23,0,0,1,.3-1,1.72,1.72,0,0,1,1.09-.26h5.2a17.48,17.48,0,0,1,1.77.08,4.3,4.3,0,0,1,1.21.28,3.57,3.57,0,0,1,1.15.68,3,3,0,0,1,.74,1,3.1,3.1,0,0,1,.25,1.25,2.78,2.78,0,0,1-.84,2.13,5.42,5.42,0,0,1-2.72,1.16l-.81.16.89.79a4.52,4.52,0,0,1,1.24,1,11.64,11.64,0,0,1,1.32,1.58,10.59,10.59,0,0,1,.91,1.51,2.32,2.32,0,0,1,.29.77.45.45,0,0,1-.1.27.76.76,0,0,1-.33.25A1.19,1.19,0,0,1,136.61,56.55Zm-9-7.16h3.44a10.32,10.32,0,0,0,2.08-.18,3,3,0,0,0,1.49-.76A2,2,0,0,0,135.2,47a2.11,2.11,0,0,0-.43-1.29,2.51,2.51,0,0,0-1.18-.84,7.78,7.78,0,0,0-2.43-.25h-3.53Z" transform="translate(-2.57 -1.03)"/><path class="cls-1" d="M19.08,56.58c-9.1,0-16.51-6.49-16.51-14.46S10,27.67,19.08,27.67A17.08,17.08,0,0,1,33.43,35,1,1,0,0,1,33,36.51a1.36,1.36,0,0,1-1.72-.41,14.46,14.46,0,0,0-12.15-6.21c-7.71,0-14,5.49-14,12.23s6.27,12.24,14,12.24c5.14,0,10.45-2.53,12.57-6.09.32-.54,1-.38,1.4.09a1.16,1.16,0,0,1,.19,1.55C30.36,54.6,25.15,56.58,19.08,56.58Z" transform="translate(-2.57 -1.03)"/><path class="cls-1" d="M19.38,51.62c-5.95,0-10.8-4.24-10.8-9.46s4.85-9.46,10.8-9.46a11.18,11.18,0,0,1,9.4,4.8.68.68,0,0,1-.31,1,.89.89,0,0,1-1.13-.28,9.46,9.46,0,0,0-8-4.06c-5,0-9.14,3.59-9.14,8s4.1,8,9.14,8A9.4,9.4,0,0,0,27.44,46a.88.88,0,0,1,1.12-.3.69.69,0,0,1,.34,1A11.11,11.11,0,0,1,19.38,51.62Z" transform="translate(-2.57 -1.03)"/><path class="cls-1" d="M39.46,43c-4.32,0-7.81,3.07-7.81,6.84s3.49,6.84,7.81,6.84,7.81-3.06,7.81-6.84S43.77,43,39.46,43Zm0,12.08c-3.3,0-6-2.35-6-5.24s2.69-5.24,6-5.24,6,2.35,6,5.24S42.76,55,39.46,55Z" transform="translate(-2.57 -1.03)"/><path class="cls-1" d="M116.32,43c-4.31,0-7.81,3.07-7.81,6.84s3.5,6.84,7.81,6.84,7.81-3.06,7.81-6.84S120.64,43,116.32,43Zm0,12.08c-3.29,0-6-2.35-6-5.24s2.69-5.24,6-5.24,6,2.35,6,5.24S119.62,55,116.32,55Z" transform="translate(-2.57 -1.03)"/><path class="cls-1" d="M92.26,56.92c-4.33,0-7.85-3.09-7.85-6.88s3.52-6.87,7.85-6.87a8.09,8.09,0,0,1,6.82,3.49.69.69,0,0,1-.31,1,.9.9,0,0,1-1.14-.28,6.4,6.4,0,0,0-5.37-2.74c-3.41,0-6.17,2.42-6.17,5.4s2.76,5.41,6.17,5.41a6.33,6.33,0,0,0,5.43-2.85.92.92,0,0,1,1.14-.29.68.68,0,0,1,.34,1A8.06,8.06,0,0,1,92.26,56.92Z" transform="translate(-2.57 -1.03)"/><path class="cls-2" d="M70.28,29.22s-7.67-2-7.63-10v-.16c0-8,7.63-10,7.63-10,2.21-.59,4.87,0,7.53,1.11C70.17,5.34,65,4.87,61.51,6A16.34,16.34,0,0,0,55.28,19v.25c0,10.45,8.5,15.44,13,16.6a15.18,15.18,0,0,0,3.91.5c10.3,0,21.63-10,23.86-12h0l-5.32-4.85C90.34,19.84,77.9,31.25,70.28,29.22Z" transform="translate(-2.57 -1.03)"/><path class="cls-3" d="M118.75,29.27c-5.21-.95-11.31-5.37-14.62-8h0a27.85,27.85,0,0,1-2.39-2.14h0l-7.53-6.74c-4.36-3.63-13.64-10.43-22-10.43a15.16,15.16,0,0,0-3.9.49A18.77,18.77,0,0,0,61.51,6c3.46-1.08,8.66-.61,16.3,4.22,6.65,2.79,13.36,9,13.36,9h0l7,6.36c4.1,3.49,13.8,10.87,22.54,10.87a15.18,15.18,0,0,0,3.91-.5,18.49,18.49,0,0,0,11.07-8.7C130.6,31.35,124.15,30.91,118.75,29.27Z" transform="translate(-2.57 -1.03)"/><path class="cls-4" d="M137.57,19c0-10.44-8.48-15.43-13-16.61a15,15,0,0,0-3.89-.49C110.36,1.92,98.75,12,96.52,14.06h0l5.37,4.7c.94-.85,13.24-11.67,20.68-9.7,0,0,7.67,2,7.62,10v.16c.05,8-7.62,10-7.62,10a8.75,8.75,0,0,1-3.82.05c5.4,1.64,11.85,2.08,16.9-2.1a16.36,16.36,0,0,0,1.92-7.9V19Z" transform="translate(-2.57 -1.03)"/></svg>